<?xml version="1.0" encoding="UTF-8" standalone="no"?>
<!-- Generator: Adobe InDesign 3.0 SVG Export Plug-in, SVG Library version: 6.0 build 78 -->
<svg
   xmlns:dc="http://purl.org/dc/elements/1.1/"
   xmlns:cc="http://web.resource.org/cc/"
   xmlns:rdf="http://www.w3.org/1999/02/22-rdf-syntax-ns#"
   xmlns:svg="http://www.w3.org/2000/svg"
   xmlns="http://www.w3.org/2000/svg"
   xmlns:sodipodi="http://sodipodi.sourceforge.net/DTD/sodipodi-0.dtd"
   xmlns:inkscape="http://www.inkscape.org/namespaces/inkscape"
   width="175.00246"
   height="191.651"
   xml:space="preserve"
   id="svg2339"
   sodipodi:version="0.32"
   inkscape:version="0.45.1"
   sodipodi:docname="FIS.svg"
   inkscape:output_extension="org.inkscape.output.svg.inkscape"
   sodipodi:docbase="D:\Inline\_INFO\_WIKI\wikipedia\logo\FIS"
   version="1.0"><metadata
   id="metadata2401"><rdf:RDF><cc:Work
       rdf:about=""><dc:format>image/svg+xml</dc:format><dc:type
         rdf:resource="http://purl.org/dc/dcmitype/StillImage" /></cc:Work></rdf:RDF></metadata><defs
   id="defs2399" /><sodipodi:namedview
   inkscape:window-height="719"
   inkscape:window-width="1024"
   inkscape:pageshadow="2"
   inkscape:pageopacity="0.0"
   guidetolerance="10.0"
   gridtolerance="10.0"
   objecttolerance="10.0"
   borderopacity="1.0"
   bordercolor="#666666"
   pagecolor="#ffffff"
   id="base"
   inkscape:zoom="1.5046573"
   inkscape:cx="125.61"
   inkscape:cy="125.61"
   inkscape:window-x="-4"
   inkscape:window-y="-4"
   inkscape:current-layer="svg2339" />
	<clipPath
   id="clp1"
   fill="none">
		<path
   shape-rendering="crispEdges"
   d="M 0,0 L 200.976,0 L 200.976,200.976 L 0,200.976 L 0,0 z "
   id="path2342"
   style="stroke:#000000" />
	</clipPath>
	<g
   clip-path="url(#clp1)"
   id="g2344"
   style="fill:none"
   transform="translate(-8.0316,-3.9377)">
		<g
   transform="translate(7.6456,3.2207)"
   id="g2346">
			<path
   d="M 169.621,109.879 L 169.621,105.099 C 169.621,105.099 171.524,105.099 171.524,105.099 C 171.906,105.099 172.197,105.142 172.396,105.228 C 172.595,105.314 172.754,105.465 172.873,105.683 C 172.992,105.9 173.051,106.14 173.051,106.403 C 173.051,106.742 172.953,107.028 172.756,107.26 C 172.559,107.492 172.255,107.64 171.844,107.703 C 171.994,107.783 172.108,107.863 172.186,107.941 C 172.352,108.111 172.509,108.323 172.656,108.577 C 172.656,108.577 173.398,109.879 173.398,109.879 L 172.689,109.879 C 172.689,109.879 172.122,108.884 172.122,108.884 C 171.956,108.597 171.82,108.377 171.713,108.225 C 171.606,108.073 171.51,107.966 171.425,107.906 C 171.34,107.846 171.254,107.803 171.166,107.779 C 171.102,107.764 170.996,107.756 170.85,107.756 C 170.85,107.756 170.192,107.756 170.192,107.756 L 170.192,109.879 L 169.621,109.879 z M 170.191,107.209 C 170.191,107.209 171.411,107.209 171.411,107.209 C 171.67,107.209 171.873,107.179 172.018,107.119 C 172.164,107.059 172.274,106.963 172.35,106.832 C 172.426,106.7 172.464,106.557 172.464,106.403 C 172.464,106.177 172.391,105.991 172.244,105.845 C 172.097,105.699 171.865,105.626 171.549,105.626 C 171.549,105.626 170.192,105.626 170.192,105.626 L 170.192,107.209 L 170.191,107.209 z "
   id="path2348"
   style="fill:#000000" />
		</g>
		<g
   transform="translate(7.6456,3.2207)"
   id="g2350">
			<path
   stroke-miterlimit="3.8637"
   d="M 167.309,107.362 C 167.309,105.209 169.054,103.464 171.207,103.464 C 173.36,103.464 175.105,105.209 175.105,107.362 C 175.105,109.515 173.36,111.26 171.207,111.26 C 169.054,111.26 167.309,109.515 167.309,107.362 z "
   id="path2352"
   style="stroke:#000000;stroke-width:0.56690001;stroke-miterlimit:3.86369991" />
		</g>
		<g
   transform="translate(7.6456,3.2207)"
   id="g2354">
			<path
   d="M 0.386,103.464 L 23.168,103.464 L 23.168,109.956 L 8.523,109.956 L 8.523,120.26 L 22.411,120.26 L 22.411,126.587 L 8.523,126.587 L 8.523,144.699 L 0.386,144.699 L 0.386,103.464 z "
   id="path2356"
   style="fill:#000000" />
		</g>
		<g
   transform="translate(7.6456,3.2207)"
   id="g2358">
			<path
   d="M 76.278,103.464 L 84.728,103.464 L 84.728,144.698 L 76.278,144.698 L 76.278,103.464 z "
   id="path2360"
   style="fill:#000000" />
		</g>
		<g
   transform="translate(7.6456,3.2207)"
   id="g2362">
			<path
   d="M 163.495,104.289 C 163.495,104.289 162.741,111.041 162.741,111.041 C 147.076,104.393 144.35,117.385 151.987,119.51 C 174.387,125.744 166.166,142.793 156.621,144.779 C 151.887,145.764 145.311,145.717 140.109,143.76 C 140.109,143.76 140.866,136.39 140.866,136.39 C 147.352,140.255 157.394,139.814 157.394,133.689 C 157.394,126.958 145.153,128.411 140.566,120.669 C 137.919,116.2 138.248,104.448 151.483,102.821 C 157.58,102.071 163.495,104.289 163.495,104.289 z "
   id="path2364"
   style="fill:#000000" />
		</g>
		<g
   transform="translate(7.6456,3.2207)"
   id="g2366">
			
				<linearGradient
   id="grd1"
   gradientUnits="userSpaceOnUse"
   x1="0"
   y1="0"
   x2="1"
   y2="0"
   gradientTransform="matrix(162.475,0,0,162.475,12.1663,159.5546)">
				<stop
   offset="0"
   style="stop-color:#F7B001"
   id="stop2369" />
				<stop
   offset="0.3186"
   style="stop-color:#F4AE01"
   id="stop2371" />
				<stop
   offset="0.9451"
   style="stop-color:#FFF1CC"
   id="stop2373" />
				<stop
   offset="0.9528"
   style="stop-color:#FFF1CC"
   id="stop2375" />
				<stop
   offset="1"
   style="stop-color:#FFF1CC"
   id="stop2377" />
			</linearGradient>
			<path
   d="M 26.668,145.573 C 26.271,145.703 26.128,145.93 25.751,146.093 C 25.582,146.164 25.426,146.132 25.283,146.249 C 25.029,146.464 25.049,146.723 24.841,146.977 C 24.568,147.309 24.282,147.373 24.009,147.705 C 23.736,148.037 23.749,148.355 23.567,148.745 C 23.079,149.792 22.403,150.156 21.461,150.832 C 21.175,151.034 20.837,150.864 20.603,151.118 C 20.453,151.28 20.486,151.495 20.317,151.638 C 20.077,151.638 19.94,151.638 19.699,151.638 C 19.355,151.638 19.225,151.944 19.017,152.21 C 18.575,152.762 18.244,153.036 17.912,153.647 C 17.366,154.648 16.891,155.129 16.196,156.039 C 15.884,156.455 15.806,156.767 15.442,157.138 C 15.332,157.255 15.162,157.184 15.052,157.294 C 14.903,157.444 14.929,157.632 14.766,157.762 C 14.467,158.002 14.084,157.801 13.83,158.1 C 13.726,158.223 13.804,158.366 13.7,158.49 C 13.252,159.016 12.816,159.101 12.296,159.556 C 12.238,159.446 12.166,159.374 12.166,159.244 C 12.166,159.01 12.387,158.932 12.426,158.698 C 12.582,157.729 12.699,157.157 13.232,156.351 C 13.94,155.285 13.914,154.42 14.688,153.406 C 15.143,152.808 15.11,152.295 15.494,151.638 C 15.585,151.482 15.754,151.469 15.858,151.326 C 16.014,151.105 15.8,150.884 15.884,150.624 C 15.988,150.312 16.222,150.24 16.43,150 C 16.8,149.571 16.761,149.155 17.054,148.667 C 17.243,148.348 17.678,148.303 17.678,147.926 C 17.678,147.803 17.6,147.738 17.6,147.614 C 17.6,147.283 17.893,147.172 18.075,146.899 C 18.335,146.509 18.459,146.275 18.673,145.859 C 18.887,145.443 18.985,145.189 19.225,144.793 C 19.323,144.624 19.361,144.442 19.563,144.403 C 19.563,144.403 19.605,144.142 19.605,144.142 C 19.651,143.694 19.911,143.485 20.203,143.154 C 20.365,142.966 20.619,142.901 20.619,142.647 C 20.619,142.478 20.541,142.387 20.541,142.218 C 20.541,141.822 20.957,141.75 21.191,141.438 C 21.327,141.256 21.249,141.074 21.373,140.885 C 21.808,140.235 22.12,139.89 22.439,139.169 C 22.849,138.246 23.239,137.817 23.791,136.985 C 23.96,136.732 24.031,136.556 24.259,136.361 C 24.369,136.263 24.545,136.244 24.545,136.094 C 24.545,135.984 24.389,135.958 24.389,135.847 C 24.389,135.385 24.805,135.255 25.091,134.898 C 25.78,134.046 26.209,133.565 26.736,132.603 C 27.334,131.511 27.724,130.919 28.485,129.925 C 28.628,129.736 28.433,129.457 28.641,129.327 C 28.641,129.327 28.933,128.87 28.933,128.87 C 30.779,126.757 31.429,125.327 33.041,123.065 C 33.411,122.545 33.684,122.265 34.003,121.713 C 34.198,121.375 34.224,121.115 34.503,120.848 C 34.763,120.601 35.043,120.582 35.283,120.302 C 35.673,119.86 35.627,119.437 35.985,118.976 C 36.251,118.632 36.499,118.463 36.635,118.04 C 36.635,118.04 36.661,117.754 36.869,117.572 C 36.869,117.572 37.297,117.512 37.297,117.512 C 37.655,117.05 37.739,116.699 38.103,116.257 C 38.695,115.542 39.091,115.165 39.507,114.333 C 39.812,113.715 40.157,113.468 40.573,112.929 C 41.438,111.811 41.906,111.148 42.79,110.043 C 43.96,108.58 44.669,107.787 45.813,106.312 C 46.209,105.799 46.378,105.447 46.801,104.96 C 47.47,104.193 48.107,103.9 48.439,102.906 C 48.439,102.906 48.681,102.683 48.681,102.683 C 49.598,102.176 49.688,101.383 50.404,100.622 C 50.742,100.258 51.093,100.18 51.392,99.79 C 51.776,99.29 51.912,98.932 52.276,98.412 C 52.412,98.217 52.608,98.223 52.796,98.074 C 53.283,97.684 53.361,97.294 53.732,96.8 C 53.96,96.494 54.194,96.417 54.46,96.15 C 55.513,95.097 55.936,94.343 56.833,93.153 C 57.067,92.841 57.307,92.763 57.561,92.471 C 58.322,91.6 58.562,90.904 59.492,90.183 C 59.492,90.183 59.711,89.937 59.711,89.937 C 60.257,89.111 60.862,88.89 61.583,88.221 C 61.824,88 61.726,87.681 61.947,87.441 C 62.851,86.479 63.546,86.102 64.261,84.964 C 64.261,84.964 64.235,85.1 64.235,85.1 C 64.879,84.801 64.989,84.294 65.457,83.767 C 66.562,82.519 67.108,81.719 68.356,80.614 C 68.824,80.198 68.967,79.834 69.448,79.444 C 69.578,79.34 69.721,79.379 69.838,79.262 C 70.234,78.866 70.196,78.397 70.67,78.092 C 70.774,78.027 70.878,78.098 70.982,78.04 C 71.632,77.663 71.742,77.149 72.308,76.655 C 72.308,76.655 72.552,76.33 72.552,76.33 C 72.812,75.992 73.059,75.901 73.384,75.628 C 74.053,75.062 74.339,74.64 74.977,74.042 C 75.816,73.256 76.063,72.567 76.849,71.728 C 77.759,70.759 78.474,70.415 79.501,69.544 C 80.496,68.699 80.827,67.984 81.796,67.113 C 82.778,66.235 83.512,65.923 84.325,64.877 C 84.325,64.877 84.935,64.348 84.935,64.348 C 86.359,63.087 87.061,62.268 88.549,61.072 C 88.874,60.812 88.933,60.526 89.225,60.233 C 90.571,58.888 91.702,58.504 92.898,57.035 C 93.639,56.125 94.257,55.794 95.219,55.104 C 96.851,53.927 97.78,53.297 99.126,51.795 C 99.509,51.366 99.711,51.106 100.14,50.729 C 100.667,50.261 101.109,50.151 101.577,49.611 C 102.279,49.143 102.66,48.53 103.277,47.958 C 103.621,47.639 104.005,47.711 104.369,47.412 C 104.642,47.184 104.7,46.944 104.941,46.684 C 105.598,45.988 106.092,45.715 106.846,45.124 C 107.119,44.909 107.19,44.676 107.444,44.442 C 107.996,43.922 108.406,43.74 109.004,43.272 C 109.238,43.09 109.277,42.869 109.498,42.674 C 109.667,42.531 109.856,42.596 110.05,42.492 C 110.934,42.005 111.35,41.601 112.078,40.874 C 112.078,40.874 112.502,40.504 112.502,40.504 C 112.944,40.12 113.282,40.023 113.75,39.672 C 115.122,38.645 115.85,37.982 117.189,36.909 C 117.553,36.623 117.611,36.305 117.943,35.973 C 118.658,35.258 119.048,34.835 119.919,34.335 C 120.107,34.231 120.296,34.316 120.465,34.179 C 121.199,33.568 121.498,33.087 122.168,32.405 C 122.935,31.625 123.553,31.397 124.508,30.871 C 124.716,30.761 124.696,30.54 124.872,30.377 C 125.1,30.169 125.314,30.156 125.574,29.987 C 125.574,29.987 126.133,29.589 126.133,29.589 C 127.362,28.497 128.194,28.087 129.461,27.034 C 130.332,26.313 130.735,25.78 131.704,25.188 C 132.699,24.584 133.225,24.174 134.155,23.472 C 134.714,23.05 134.974,22.75 135.507,22.302 C 135.871,21.997 135.994,21.568 136.469,21.568 C 136.521,21.568 136.534,21.626 136.586,21.626 C 137.19,21.626 137.399,21.106 137.795,20.651 C 137.795,20.651 138.053,20.499 138.053,20.499 C 141.14,17.8 143.339,16.937 146.551,14.451 C 147.213,13.939 152.907,9.902 154.44,9.121 C 155.856,7.876 157.086,7.14 158.348,6.452 C 159.523,5.815 160.071,5.166 161.309,4.617 C 161.309,4.617 162.047,4.279 162.047,4.279 C 162.223,3.973 162.521,3.961 162.853,3.837 C 163.23,3.694 163.412,3.505 163.789,3.343 C 164.569,2.999 164.933,2.647 165.713,2.303 C 166.486,1.965 166.961,1.874 167.715,1.497 C 168.385,1.165 168.794,0.873 169.542,0.873 C 169.724,0.873 169.828,0.873 170.01,0.873 C 170.01,0.873 170.524,0.717 170.524,0.717 C 171.382,0.931 171.746,1.36 172.461,1.861 C 172.948,2.199 173.462,2.108 173.813,2.589 C 173.949,2.777 173.826,3.135 174.06,3.135 C 174.138,3.135 174.177,3.057 174.255,3.057 C 174.45,3.057 174.567,3.265 174.567,3.46 C 174.567,3.571 174.645,3.623 174.645,3.733 C 174.645,3.895 174.489,3.954 174.489,4.117 C 174.489,4.377 174.489,4.52 174.489,4.78 C 174.489,5.157 174.164,5.28 173.891,5.534 C 173.748,5.664 173.8,5.872 173.657,6.002 C 173.52,6.126 173.358,6.048 173.189,6.132 C 172.981,6.236 172.916,6.392 172.721,6.522 C 172.357,6.762 172.026,6.698 171.681,6.964 C 170.355,7.991 169.581,8.524 168.21,9.512 C 166.962,10.409 166.273,10.916 165.012,11.774 C 164.739,11.956 164.498,11.95 164.232,12.138 C 164.037,12.274 164.089,12.534 163.894,12.664 C 162.958,13.288 162.444,13.639 161.547,14.335 C 161.547,14.335 161.309,14.605 161.309,14.605 C 161.153,14.891 161.14,15.106 160.971,15.385 C 160.184,16.679 159.255,17.036 158.007,17.907 C 157.292,18.408 156.746,18.466 156.057,18.999 C 155.706,19.272 155.732,19.662 155.407,19.961 C 155.277,20.078 155.095,19.987 154.939,20.065 C 154.601,20.241 154.491,20.455 154.211,20.715 C 153.958,20.949 153.763,21.04 153.503,21.268 C 153.321,21.424 153.321,21.645 153.107,21.762 C 152.619,22.028 152.171,21.918 151.781,22.308 C 151.391,22.698 151.397,23.114 151.053,23.537 C 150.156,24.629 149.285,24.883 148.167,25.747 C 147.901,25.948 147.913,26.247 147.647,26.449 C 147.647,26.449 147.48,26.718 147.48,26.718 C 147.207,27.03 146.856,26.939 146.492,27.134 C 146.323,27.225 146.466,27.446 146.466,27.641 C 146.466,27.881 146.141,27.855 145.914,27.914 C 145.654,27.985 145.544,28.2 145.472,28.46 C 145.414,28.681 145.206,28.707 145.03,28.85 C 144.796,29.045 144.744,29.24 144.562,29.481 C 144.185,29.975 143.802,30.085 143.34,30.495 C 142.878,30.905 142.774,31.308 142.274,31.665 C 141.24,32.406 140.766,32.965 139.726,33.693 C 138.816,34.33 137.841,34.714 137.841,35.819 C 137.704,35.832 137.626,35.806 137.49,35.806 C 137.146,35.806 137.146,36.254 136.853,36.43 C 135.923,36.996 135.429,37.353 134.617,38.075 C 134.058,38.569 133.967,39.076 133.421,39.583 C 132.927,40.045 132.608,40.253 132.095,40.701 C 132.095,40.701 131.715,41.053 131.715,41.053 C 131.124,41.443 130.708,41.567 130.207,42.067 C 129.791,42.483 129.635,42.821 129.16,43.159 C 128.536,43.607 128.341,44.05 127.73,44.511 C 127.535,44.654 127.34,44.563 127.106,44.641 C 126.892,44.712 126.892,44.94 126.794,45.141 C 126.216,46.324 125.383,46.662 124.428,47.559 C 123.824,48.124 123.407,48.424 122.913,49.099 C 122.744,49.333 122.633,49.483 122.445,49.697 C 122.321,49.84 122.302,50.061 122.107,50.061 C 122.029,50.061 121.984,50.009 121.906,50.009 C 121.542,50.009 121.529,50.451 121.347,50.763 C 121.191,51.023 120.957,51.049 120.723,51.231 C 120.183,51.66 119.878,51.907 119.345,52.349 C 118.968,52.661 118.864,52.96 118.539,53.318 C 118.461,53.409 118.325,53.344 118.227,53.422 C 117.583,53.936 117.369,54.377 116.719,54.878 C 116.719,54.878 116.418,55.282 116.418,55.282 C 116.132,55.614 115.878,55.718 115.612,56.062 C 115.443,56.283 115.586,56.549 115.404,56.764 C 115.04,57.18 114.741,57.33 114.39,57.752 C 113.883,58.363 113.357,58.467 112.849,59.078 C 112.511,59.488 112.517,59.91 112.069,60.196 C 111.939,60.274 111.777,60.183 111.679,60.3 C 111.25,60.8 111.179,61.217 110.743,61.711 C 110.015,62.543 109.488,62.92 108.585,63.563 C 108.085,63.914 107.935,64.291 107.486,64.707 C 106.855,65.298 106.361,65.52 105.841,66.215 C 105.613,66.521 105.601,66.787 105.321,67.047 C 104.658,67.664 104.177,67.918 103.579,68.607 C 103.579,68.607 103.15,68.93 103.15,68.93 C 102.916,69.3 102.832,69.541 102.526,69.847 C 102.272,70.101 101.902,69.886 101.668,70.159 C 101.551,70.295 101.674,70.484 101.564,70.627 C 101.402,70.835 101.135,70.744 100.94,70.913 C 100.335,71.446 100.238,71.979 99.666,72.551 C 99.204,73.013 98.795,73.129 98.366,73.617 C 98.093,73.929 97.852,74.046 97.553,74.345 C 96.877,75.021 96.773,75.684 96.019,76.269 C 95.701,76.516 95.701,76.848 95.395,77.114 C 95.187,77.296 94.901,77.101 94.687,77.27 C 94.317,77.562 94.421,78.109 93.959,78.258 C 93.959,78.258 93.511,78.709 93.511,78.709 C 92.633,79.001 92.568,79.769 91.873,80.347 C 91.574,80.594 91.522,80.854 91.249,81.127 C 91.125,81.251 90.937,81.121 90.781,81.205 C 90.593,81.309 90.709,81.537 90.651,81.751 C 90.534,82.173 90.131,82.206 89.76,82.427 C 89.351,82.674 89.182,82.927 88.902,83.311 C 88.375,84.033 88.122,84.553 87.368,85.034 C 86.614,85.515 86.38,86.055 85.86,86.783 C 85.216,87.68 84.846,88.213 84.085,89.019 C 83.52,89.617 83.272,90.026 82.629,90.527 C 81.771,91.19 81.043,91.418 80.516,92.373 C 80.516,92.373 80.373,92.644 80.373,92.644 C 80.158,92.787 79.989,92.858 79.879,93.092 C 79.795,93.267 79.814,93.534 79.619,93.534 C 79.515,93.534 79.45,93.482 79.346,93.482 C 79.034,93.482 79.06,93.872 78.891,94.132 C 78.787,94.288 78.618,94.269 78.449,94.34 C 77.942,94.561 77.689,94.814 77.383,95.276 C 77.195,95.562 77.331,95.867 77.123,96.134 C 77.013,96.277 76.785,96.121 76.655,96.238 C 76.564,96.316 76.609,96.439 76.551,96.55 C 76.369,96.881 76.103,96.979 75.875,97.278 C 75.193,98.162 74.731,98.643 73.84,99.306 C 73.652,99.443 73.775,99.703 73.658,99.904 C 73.366,100.398 73.112,100.639 72.67,101.009 C 72.488,101.159 72.579,101.529 72.339,101.529 C 72.248,101.529 72.196,101.477 72.105,101.477 C 71.819,101.477 71.767,101.795 71.65,102.049 C 71.546,102.277 71.371,102.335 71.234,102.543 C 71.143,102.679 71.169,102.907 71,102.907 C 70.85,102.907 70.798,102.751 70.649,102.751 C 70.428,102.751 70.526,103.082 70.48,103.297 C 70.441,103.486 70.324,103.596 70.142,103.661 C 69.713,103.823 69.524,104.064 69.258,104.441 C 68.719,105.189 68.445,105.715 67.646,106.157 C 67.646,106.157 67.35,106.457 67.35,106.457 C 67.292,106.723 67.318,106.951 67.09,107.081 C 66.96,107.153 66.83,106.984 66.7,107.055 C 66.564,107.133 66.648,107.309 66.57,107.445 C 66.479,107.601 66.304,107.614 66.206,107.757 C 66.096,107.919 66.161,108.115 65.992,108.225 C 65.784,108.362 65.485,108.141 65.368,108.355 C 65.251,108.569 65.401,108.823 65.212,108.979 C 64.594,109.505 64.354,109.922 63.808,110.519 C 63.665,110.682 63.821,110.922 63.678,111.091 C 63.542,111.253 63.327,111.111 63.132,111.195 C 62.937,111.279 62.898,111.442 62.768,111.611 C 62.228,112.306 62.053,112.826 61.39,113.405 C 61.221,113.548 60.994,113.477 60.844,113.639 C 59.973,114.569 59.752,115.29 58.913,116.246 C 58.685,116.506 58.393,116.493 58.133,116.714 C 57.665,117.117 57.483,117.448 57.138,117.969 C 57.138,117.969 56.904,117.891 56.904,117.891 C 56.664,118.041 56.703,118.287 56.592,118.541 C 56.592,118.541 56.347,118.761 56.347,118.761 C 56.191,118.917 56.185,119.067 56.113,119.281 C 56.029,119.255 55.97,119.229 55.879,119.229 C 55.599,119.229 55.71,119.658 55.515,119.853 C 55.379,119.989 55.171,119.937 55.047,120.087 C 54.703,120.49 54.709,120.913 54.267,121.205 C 54.118,121.303 53.968,121.322 53.903,121.491 C 53.844,121.634 53.942,121.79 53.825,121.881 C 53.357,122.251 52.473,122.011 52.473,122.609 C 52.473,122.81 52.239,122.875 52.239,123.077 C 52.239,123.168 52.291,123.22 52.291,123.311 C 52.291,123.493 52.109,123.565 51.953,123.649 C 51.953,123.603 51.927,123.584 51.927,123.539 C 51.927,123.363 52.012,123.279 52.031,123.103 C 51.544,123.155 51.518,123.669 51.173,124.013 C 50.906,124.279 50.893,124.559 50.601,124.793 C 50.367,124.975 50.133,124.943 49.893,125.111 C 49.139,125.657 49.028,126.353 48.248,126.86 C 48.047,126.99 48.177,127.406 47.936,127.406 C 47.774,127.406 47.709,127.25 47.546,127.25 C 47.097,127.25 47.065,127.783 46.766,128.108 C 46.285,128.628 45.895,128.869 45.596,129.512 C 45.356,130.026 45.011,130.201 44.634,130.63 C 44.153,131.176 44.016,131.631 43.412,132.034 C 43.412,132.034 43.116,132.018 43.116,132.018 C 42.876,132.044 42.85,132.31 42.7,132.486 C 42.479,132.74 42.16,132.746 42.024,133.064 C 41.966,133.2 42.063,133.324 41.992,133.454 C 41.888,133.649 41.693,133.656 41.55,133.818 C 41.108,134.325 40.939,134.689 40.458,135.17 C 40.068,135.56 40.042,136.21 39.489,136.21 C 39.281,136.21 39.158,136.21 38.95,136.21 C 38.638,136.782 38.144,136.886 37.78,137.432 C 37.624,137.673 37.761,137.978 37.52,138.134 C 37.364,138.238 37.162,138.173 37.078,138.342 C 36.974,138.556 37.065,138.771 36.896,138.94 C 36.896,138.94 36.74,138.888 36.74,138.888 C 36.506,138.966 36.558,139.226 36.376,139.382 C 35.921,139.772 35.752,140.091 35.44,140.611 C 35.258,140.429 35.258,140.117 35.005,140.117 C 34.81,140.117 34.602,140.208 34.602,140.403 C 34.602,140.559 34.368,140.481 34.212,140.507 C 33.991,140.54 33.874,140.592 33.66,140.663 C 33.66,140.618 33.634,140.598 33.634,140.553 C 33.634,140.319 33.816,140.228 33.946,140.04 C 34.238,139.624 34.472,139.436 34.811,139.045 C 35.065,138.746 35.084,138.479 35.311,138.161 C 35.506,137.888 35.851,137.901 35.987,137.589 C 36.091,137.355 36.026,137.167 36.169,136.965 C 36.423,136.614 36.481,136.341 36.767,136.029 C 37.001,135.775 37.313,135.665 37.313,135.314 C 37.313,135.19 37.202,135.093 37.079,135.093 C 36.864,135.093 36.747,135.171 36.533,135.171 C 36.533,135.691 36,135.808 35.597,136.133 C 35.213,136.439 35.071,136.731 34.628,136.965 C 34.433,137.063 34.257,136.991 34.082,137.121 C 33.946,137.219 33.952,137.401 33.79,137.459 C 33.537,137.557 33.53,137.81 33.348,138.005 C 33.238,138.129 33.082,138.089 32.958,138.213 C 32.828,138.343 32.919,138.538 32.802,138.681 C 32.256,139.318 31.892,139.871 31.06,139.929 C 31.06,140.04 31.086,140.098 31.086,140.209 C 31.086,140.345 30.891,140.339 30.8,140.43 C 30.651,140.58 30.638,140.723 30.514,140.898 C 29.968,141.665 29.682,142.14 29.11,142.881 C 28.317,143.908 27.901,144.526 26.972,145.455 C 26.964,145.455 26.668,145.573 26.668,145.573 z "
   id="path2379"
   style="fill:url(#grd1)" />
		</g>
		<g
   transform="translate(7.6456,3.2207)"
   id="g2381">
			
				<linearGradient
   id="grd2"
   gradientUnits="userSpaceOnUse"
   x1="0"
   y1="0"
   x2="1"
   y2="0"
   gradientTransform="matrix(96.1583,-155.6936,155.6936,96.1583,79.3134,192.1663)">
				<stop
   offset="0"
   style="stop-color:#013586"
   id="stop2384" />
				<stop
   offset="0.2143"
   style="stop-color:#013586"
   id="stop2386" />
				<stop
   offset="0.5824"
   style="stop-color:#434B98"
   id="stop2388" />
				<stop
   offset="0.8956"
   style="stop-color:#CCCBE5"
   id="stop2390" />
				<stop
   offset="0.9104"
   style="stop-color:#CCCBE5"
   id="stop2392" />
				<stop
   offset="1"
   style="stop-color:#CCCBE5"
   id="stop2394" />
			</linearGradient>
			<path
   d="M 150.564,59.699 C 150.772,59.387 151.029,59.32 151.274,59.038 C 151.764,58.475 151.831,57.961 152.4,57.472 C 152.559,57.337 152.773,57.405 152.914,57.252 C 153.257,56.879 153.324,56.548 153.673,56.175 C 154.389,55.41 154.97,55.141 155.582,54.29 C 155.98,53.733 156.316,53.507 156.806,53.017 C 157.228,52.595 157.351,52.252 157.712,51.787 C 158.14,51.242 158.52,51.059 159.015,50.563 C 159.761,49.816 160.11,49.327 160.948,48.678 C 160.948,48.678 161.19,48.361 161.19,48.361 C 161.796,47.578 162.458,47.341 163.003,46.521 C 163.37,45.818 163.92,45.672 164.463,45.091 C 165.671,43.799 166.366,43.065 167.521,41.743 C 167.896,41.307 168.347,41.3 168.714,40.856 C 169.738,39.625 170.358,38.975 171.512,37.89 C 172.185,37.255 172.559,36.873 173.286,36.315 C 173.752,35.956 173.989,35.52 174.586,35.52 C 174.869,35.52 175.022,35.589 175.305,35.612 C 175.305,35.719 175.336,35.788 175.336,35.895 C 175.336,36.652 174.877,37.026 174.877,37.783 C 174.877,38.57 174.25,38.861 173.807,39.511 C 173.585,39.84 173.723,40.138 173.624,40.52 C 173.379,41.407 172.852,41.743 172.523,42.599 C 172.148,43.57 171.338,43.799 170.964,44.77 C 170.582,45.764 170.369,46.495 169.567,47.206 C 168.947,47.619 169.051,48.267 168.901,48.996 C 168.803,49.484 168.362,49.61 168.258,50.097 C 167.971,51.388 166.514,51.669 166.514,52.983 C 166.514,53.155 166.514,53.253 166.514,53.425 C 165.694,53.97 165.51,54.613 165.114,55.513 C 164.953,55.875 164.758,56.024 164.632,56.408 C 164.632,56.408 164.303,56.883 164.303,56.883 C 163.861,57.015 164.01,57.549 163.936,58.008 C 163.884,58.323 163.649,58.421 163.5,58.696 C 163.299,59.069 163.271,59.362 162.972,59.66 C 162.49,60.142 162.272,60.469 161.893,61.037 C 161.727,61.289 161.744,61.525 161.526,61.725 C 161.308,61.925 160.975,61.966 160.975,62.264 C 160.975,62.528 161.159,62.654 161.159,62.918 C 161.159,63.113 160.952,63.159 160.838,63.308 C 160.62,63.595 160.517,63.778 160.287,64.065 C 159.897,64.558 159.857,64.96 159.507,65.488 C 158.979,66.28 158.572,66.641 158.015,67.416 C 157.854,67.645 157.694,67.76 157.602,68.036 C 157.602,68.036 157.222,68.744 157.222,68.744 C 156.734,69.174 156.734,69.65 156.442,70.236 C 156.321,70.477 156.069,70.454 155.891,70.649 C 155.667,70.89 155.679,71.125 155.547,71.429 C 155.381,71.808 155.105,71.899 154.836,72.209 C 154.538,72.553 154.561,72.875 154.308,73.265 C 154.101,73.586 153.734,73.598 153.597,73.953 C 153.408,74.446 153.35,74.773 153,75.169 C 152.713,75.496 152.444,75.617 152.266,76.018 C 152.18,76.219 152.266,76.385 152.151,76.569 C 152.013,76.787 151.784,76.787 151.623,76.982 C 151.365,77.298 151.491,77.67 151.187,77.946 C 150.659,78.428 150.499,78.824 150.108,79.415 C 150.108,79.415 149.41,80.31 149.41,80.31 C 148.871,81.037 148.668,81.537 148.191,82.31 C 148.043,82.552 147.707,82.466 147.566,82.716 C 147.207,83.357 147.238,83.825 146.878,84.466 C 145.878,86.255 144.894,87.005 144.065,88.904 C 143.729,89.685 143.292,89.99 142.815,90.685 C 142.424,91.255 142.284,91.638 141.877,92.185 C 141.291,92.966 140.939,93.404 140.502,94.279 C 140.299,94.693 140.299,95.037 139.939,95.31 C 139.822,95.396 139.689,95.263 139.564,95.341 C 139.337,95.482 139.376,95.724 139.283,95.966 C 139.056,96.513 138.752,96.779 138.658,97.372 C 138.658,97.372 138.314,98.341 138.314,98.341 C 137.947,98.708 137.634,98.825 137.408,99.279 C 137.275,99.552 137.338,99.771 137.189,100.029 C 136.666,100.904 136.087,101.256 135.814,102.217 C 135.673,102.701 135.095,102.803 135.095,103.311 C 135.095,103.436 135.189,103.499 135.189,103.624 C 135.189,103.812 134.908,103.78 134.814,103.937 C 134.564,104.343 134.533,104.656 134.283,105.062 C 133.994,105.531 133.502,105.578 133.314,106.093 C 133.001,106.945 132.439,107.241 132.126,108.093 C 132.063,108.273 132.095,108.429 132.001,108.593 C 131.837,108.866 131.571,108.89 131.407,109.156 C 130.837,110.078 130.563,110.625 130.001,111.562 C 129.548,112.328 129.438,112.875 128.782,113.468 C 128.782,113.468 128.251,114.199 128.251,114.199 C 127.876,114.574 128.001,115.036 127.751,115.499 C 127.126,116.611 126.864,117.286 126.251,118.398 C 125.076,120.523 124.039,121.51 123.052,123.747 C 122.465,125.084 121.64,125.559 121.052,126.896 C 120.652,127.796 120.598,128.395 120.086,129.22 C 119.086,130.832 118.143,131.223 117.731,133.123 C 117.556,133.086 117.403,133.357 117.254,133.295 C 117.279,133.445 117.304,133.533 117.304,133.682 C 117.304,134.632 116.667,135.044 116.104,135.794 C 115.104,137.131 115.117,138.231 114.204,139.643 C 113.517,140.705 112.929,141.193 112.654,142.442 C 112.654,142.442 112.15,142.699 112.15,142.699 C 112.075,143.036 111.85,143.137 111.65,143.399 C 111.288,143.874 111.525,144.399 111.2,144.899 C 111.075,145.086 110.813,144.962 110.65,145.099 C 110.163,145.536 110,146.011 110,146.674 C 110,146.762 110.1,146.812 110.1,146.899 C 110.1,147.424 109.325,147.336 109.1,147.799 C 108.25,149.511 107.525,150.336 106.751,152.098 C 106.001,153.785 105.426,154.647 104.601,156.297 C 104.339,156.834 103.801,157.022 103.801,157.622 C 103.801,157.797 103.901,157.897 103.901,158.072 C 103.901,159.097 103.064,159.447 102.701,160.396 C 101.439,163.658 100.277,165.295 98.702,168.444 C 98.327,169.194 97.89,169.556 97.802,170.393 C 97.802,170.393 97.237,171.208 97.237,171.208 C 96.344,172.218 96.148,173.019 95.352,174.12 C 94.899,174.75 94.691,175.154 94.422,175.882 C 94.385,175.992 94.245,175.992 94.202,176.102 C 94.092,176.371 94.153,176.622 93.933,176.812 C 93.908,176.732 93.884,176.677 93.884,176.592 C 93.884,176.09 94.178,175.839 94.178,175.338 C 94.178,175.283 94.178,175.252 94.178,175.197 C 94.007,175.393 93.994,175.576 93.835,175.784 C 93.462,176.267 93.101,176.567 93.101,177.179 C 93.101,177.35 92.924,177.381 92.832,177.522 C 92.612,177.852 92.477,178.036 92.245,178.354 C 91.921,178.801 91.958,179.211 91.56,179.608 C 91.493,179.492 91.425,179.437 91.328,179.339 C 91.273,179.474 91.206,179.608 91.059,179.608 C 90.912,179.608 90.839,179.51 90.692,179.51 C 90.551,179.51 90.551,179.687 90.484,179.804 C 90.356,180.018 90.276,180.153 90.215,180.391 C 90.093,180.838 89.768,180.985 89.554,181.394 C 89.413,181.669 89.505,182.104 89.193,182.104 C 88.954,182.104 88.765,181.89 88.765,181.651 C 88.765,181.241 89.279,181.143 89.279,180.733 C 89.279,180.47 89.157,180.335 89.157,180.072 C 89.157,179.485 89.701,179.258 89.701,178.671 C 89.701,178.549 89.628,178.426 89.505,178.426 C 88.899,178.426 88.563,178.848 88.251,179.362 C 87.939,179.882 88,180.31 87.688,180.831 C 87.474,181.186 87.615,181.529 87.37,181.859 C 87.211,182.073 86.978,182.049 86.783,182.226 C 86.404,182.575 86.385,182.942 86.22,183.45 C 86.22,183.45 86.1,183.649 86.1,183.649 C 85.806,183.845 85.604,183.93 85.366,184.187 C 84.95,184.634 85.133,185.172 84.73,185.631 C 84.51,185.882 84.693,186.225 84.436,186.439 C 84.283,186.561 84.118,186.396 83.922,186.439 C 83.579,186.512 83.396,186.678 83.188,186.953 C 82.552,187.791 82.515,188.47 82.136,189.449 C 81.934,189.975 81.628,190.183 81.206,190.55 C 81.029,190.703 80.98,190.942 80.741,190.942 C 80.68,190.942 80.655,190.869 80.594,190.869 C 80.392,190.869 80.435,191.144 80.374,191.334 C 80.294,191.585 80.166,191.695 80.007,191.903 C 79.86,192.099 79.817,192.368 79.567,192.368 C 79.377,192.368 79.365,192.117 79.347,191.928 C 79.347,191.928 79.739,189.279 79.739,189.279 C 79.739,188.912 79.739,188.698 79.739,188.331 C 79.739,187.689 79.904,187.352 80.008,186.71 C 80.137,185.921 80.106,185.468 80.302,184.703 C 80.516,183.889 80.914,183.485 80.914,182.647 C 80.914,182.433 80.718,182.347 80.718,182.133 C 80.718,181.748 81.006,181.607 81.208,181.276 C 81.489,180.811 81.526,180.468 81.526,179.924 C 81.526,179.643 81.526,179.477 81.526,179.196 C 81.526,179.196 81.562,178.84 81.562,178.84 C 81.709,178.387 81.929,178.185 82.003,177.714 C 82.187,176.582 82.229,175.952 82.517,174.85 C 82.639,174.385 82.805,174.146 82.982,173.7 C 83.306,172.88 83.276,172.36 83.422,171.473 C 83.52,170.855 83.734,170.549 84.009,169.998 C 84.162,169.686 84.082,169.46 84.156,169.117 C 84.272,168.573 84.548,168.334 84.694,167.795 C 84.939,166.914 85.037,166.406 85.404,165.568 C 85.404,165.568 85.734,164.63 85.734,164.63 C 85.734,164.587 85.71,164.569 85.71,164.526 C 85.71,163.529 86.126,163.009 86.493,162.085 C 86.719,161.516 86.719,161.155 86.885,160.568 C 87.252,159.265 87.729,158.635 88.28,157.386 C 88.555,156.762 88.586,156.37 88.77,155.715 C 89.119,154.491 89.498,153.861 89.969,152.68 C 90.189,152.117 90.116,151.701 90.434,151.187 C 90.562,150.979 90.728,150.918 90.85,150.697 C 90.85,150.697 90.84,150.325 90.84,150.325 C 90.907,149.713 91.33,149.487 91.623,148.954 C 91.947,148.36 91.947,147.932 92.284,147.339 C 93.092,145.92 93.398,145.032 93.997,143.521 C 94.523,142.205 94.933,141.52 95.514,140.211 C 96.077,138.938 96.163,138.063 97.08,137.029 C 97.08,137.029 97.217,136.435 97.217,136.435 C 97.609,135.144 98.233,134.612 98.955,133.498 C 99.652,132.421 99.567,131.552 100.277,130.488 C 100.62,129.968 100.699,129.607 100.962,129.044 C 101.5,127.906 101.972,127.349 102.626,126.272 C 103.122,125.452 103.244,124.895 103.776,124.094 C 103.776,124.094 103.843,123.87 103.843,123.87 C 104.137,122.983 104.455,122.561 104.993,121.814 C 105.311,121.373 105.629,121.11 105.629,120.566 C 105.629,120.223 105.678,119.783 106.021,119.783 C 106.082,119.783 106.094,119.85 106.143,119.881 C 106.437,119.532 106.394,119.196 106.608,118.804 C 106.902,118.272 107.171,118.021 107.367,117.433 C 107.581,116.778 108.113,116.613 108.321,115.958 C 108.584,115.132 109.086,114.851 109.594,114.147 C 109.888,113.737 109.851,113.401 110.108,112.972 C 110.279,112.691 110.243,112.336 110.573,112.262 C 110.573,112.262 110.763,112.067 110.763,112.067 C 110.818,111.565 111.228,111.431 111.473,110.99 C 111.809,110.378 111.834,109.931 112.256,109.375 C 112.495,109.063 112.966,109.045 112.966,108.653 C 112.966,108.567 112.917,108.518 112.917,108.433 C 112.917,108.115 113.339,108.127 113.504,107.858 C 113.608,107.687 113.522,107.528 113.602,107.344 C 114.067,106.298 114.783,105.955 115.193,104.896 C 115.297,104.615 115.621,104.639 115.78,104.382 C 115.915,104.162 115.935,103.987 116.039,103.748 C 116.327,103.099 116.655,102.944 117.028,102.344 C 117.193,102.075 117.242,102.042 117.34,101.736 C 117.34,101.736 117.585,101.402 117.812,101.145 C 118.204,100.698 118.363,100.362 118.571,99.799 C 118.693,99.463 118.969,99.377 119.14,99.065 C 119.14,99.065 119.426,98.643 119.426,98.643 C 120.117,97.952 120.295,97.413 120.846,96.612 C 121.262,96 121.586,95.7 121.996,95.095 C 122.669,94.11 123.067,93.547 123.758,92.574 C 124.046,92.17 124.211,91.938 124.517,91.546 C 124.676,91.338 124.909,91.252 124.909,90.983 C 124.909,90.873 125.068,90.897 125.129,90.812 C 125.331,90.549 125.386,90.335 125.594,90.072 C 126.157,89.362 126.61,89.014 126.94,88.163 C 127.105,87.729 127.374,87.557 127.729,87.257 C 127.87,87.141 127.845,86.982 127.925,86.816 C 128.194,86.278 128.378,85.947 128.879,85.617 C 128.879,85.617 129.29,85.296 129.29,85.296 C 129.877,84.537 130.092,84.042 130.685,83.289 C 131.052,82.824 131.162,82.475 131.566,82.041 C 131.75,81.839 132.129,81.87 132.129,81.588 C 132.129,81.472 132.056,81.411 132.056,81.294 C 132.056,80.786 132.552,80.664 132.913,80.303 C 132.913,80.303 133.218,79.945 133.218,79.945 C 133.634,79.627 133.799,79.364 134.099,78.942 C 134.344,78.599 134.472,78.208 134.894,78.208 C 134.894,77.951 134.894,77.81 134.894,77.553 C 134.894,77.272 135.237,77.266 135.42,77.057 C 135.646,76.794 135.671,76.549 135.934,76.323 C 136.326,75.98 136.619,75.833 136.938,75.417 C 137.623,74.53 138.027,74.034 138.651,73.092 C 138.651,73.092 138.887,72.779 138.887,72.779 C 139.138,72.687 139.101,72.412 139.279,72.216 C 139.499,71.977 139.762,71.977 139.964,71.726 C 140.356,71.243 140.441,70.863 140.87,70.404 C 141.102,70.153 141.372,70.153 141.58,69.89 C 141.849,69.553 141.837,69.241 142.143,68.936 C 142.302,68.777 142.473,68.795 142.657,68.667 C 142.932,68.477 142.883,68.043 143.22,68.006 C 143.22,68.006 143.377,67.649 143.377,67.649 C 143.567,67.184 143.879,67.025 144.209,66.645 C 145.17,65.544 145.733,64.913 146.632,63.757 C 146.969,63.323 147.287,63.176 147.66,62.778 C 148.627,61.75 149.171,61.181 150.108,60.11 C 150.104,60.111 150.564,59.699 150.564,59.699 z "
   id="path2396"
   style="fill:url(#grd2)" />
		</g>
	</g>
</svg>